<svg xmlns="http://www.w3.org/2000/svg" width="1600" height="900" viewBox="0 0 1600 900" role="img" aria-labelledby="title desc">
  <title id="title">ADB MCP Architecture</title>
  <desc id="desc">Architecture diagram showing MCP client, stdio transport, adb-mcp server components, adb process boundary, and Android emulator or device target.</desc>
  <defs>
    <linearGradient id="bg" x1="0" y1="0" x2="1" y2="1">
      <stop offset="0" stop-color="#0b1014"/>
      <stop offset="0.55" stop-color="#111b20"/>
      <stop offset="1" stop-color="#07110e"/>
    </linearGradient>
    <linearGradient id="card" x1="0" y1="0" x2="1" y2="1">
      <stop offset="0" stop-color="#172229"/>
      <stop offset="1" stop-color="#0f171c"/>
    </linearGradient>
    <filter id="shadow" x="-20%" y="-20%" width="140%" height="140%">
      <feDropShadow dx="0" dy="14" stdDeviation="18" flood-color="#000" flood-opacity="0.35"/>
    </filter>
    <marker id="arrow" viewBox="0 0 10 10" refX="9" refY="5" markerWidth="8" markerHeight="8" orient="auto-start-reverse">
      <path d="M 0 0 L 10 5 L 0 10 z" fill="#60d394"/>
    </marker>
    <style>
      .title { font: 700 52px Inter, ui-sans-serif, system-ui, -apple-system, BlinkMacSystemFont, "Segoe UI", sans-serif; fill: #f4fff8; letter-spacing: 0; }
      .subtitle { font: 400 24px Inter, ui-sans-serif, system-ui, -apple-system, BlinkMacSystemFont, "Segoe UI", sans-serif; fill: #a8c3b6; letter-spacing: 0; }
      .card-title { font: 700 28px Inter, ui-sans-serif, system-ui, -apple-system, BlinkMacSystemFont, "Segoe UI", sans-serif; fill: #f4fff8; letter-spacing: 0; }
      .card-body { font: 400 19px Inter, ui-sans-serif, system-ui, -apple-system, BlinkMacSystemFont, "Segoe UI", sans-serif; fill: #c8d7d0; letter-spacing: 0; }
      .mono { font: 600 18px "SFMono-Regular", Consolas, monospace; fill: #d8ffe7; letter-spacing: 0; }
      .pill { font: 700 16px Inter, ui-sans-serif, system-ui, -apple-system, BlinkMacSystemFont, "Segoe UI", sans-serif; fill: #07110e; letter-spacing: 0; }
      .box { fill: url(#card); stroke: #274039; stroke-width: 2; filter: url(#shadow); }
      .accent { fill: #60d394; }
      .line { stroke: #60d394; stroke-width: 4; fill: none; marker-end: url(#arrow); }
      .muted-line { stroke: #31524a; stroke-width: 2; fill: none; }
    </style>
  </defs>
  <rect width="1600" height="900" fill="url(#bg)"/>
  <circle cx="1360" cy="140" r="220" fill="#60d394" opacity="0.06"/>
  <circle cx="250" cy="780" r="260" fill="#47b7ff" opacity="0.05"/>
  <text x="80" y="96" class="title">ADB MCP Architecture</text>
  <text x="82" y="137" class="subtitle">Android Debug Bridge wrapped as typed MCP tools, resources, and prompts</text>

  <rect x="70" y="240" width="270" height="180" rx="14" class="box"/>
  <text x="105" y="295" class="card-title">MCP Client</text>
  <text x="105" y="337" class="card-body">Codex, Claude,</text>
  <text x="105" y="366" class="card-body">desktop IDE, or CLI</text>
  <rect x="104" y="235" width="120" height="32" rx="16" fill="#60d394"/>
  <text x="126" y="257" class="pill">Host app</text>

  <rect x="430" y="240" width="270" height="180" rx="14" class="box"/>
  <text x="465" y="295" class="card-title">Transport</text>
  <text x="465" y="338" class="mono">StdioServerTransport</text>
  <text x="465" y="369" class="card-body">local process boundary</text>

  <rect x="790" y="180" width="360" height="300" rx="18" class="box"/>
  <text x="830" y="238" class="card-title">adb-mcp Server</text>
  <text x="830" y="286" class="mono">src/server.ts</text>
  <line x1="830" y1="312" x2="1110" y2="312" class="muted-line"/>
  <text x="830" y="352" class="card-body">Tools: 38 ADB actions</text>
  <text x="830" y="386" class="card-body">Resource: adb://cheatsheet</text>
  <text x="830" y="420" class="card-body">Prompt: adb_triage</text>

  <rect x="1240" y="240" width="280" height="180" rx="14" class="box"/>
  <text x="1275" y="295" class="card-title">ADB Runner</text>
  <text x="1275" y="338" class="mono">src/adb.ts</text>
  <text x="1275" y="369" class="card-body">spawns platform-tools adb</text>

  <rect x="280" y="610" width="320" height="160" rx="14" class="box"/>
  <text x="315" y="665" class="card-title">Schemas + Helpers</text>
  <text x="315" y="707" class="card-body">Zod validation, parsers,</text>
  <text x="315" y="736" class="card-body">paths, quoting, responses</text>

  <rect x="760" y="610" width="320" height="160" rx="14" class="box"/>
  <text x="795" y="665" class="card-title">Artifacts</text>
  <text x="795" y="707" class="card-body">screenshots, logs, video,</text>
  <text x="795" y="736" class="card-body">bugreports, diagnostics</text>

  <rect x="1200" y="610" width="320" height="160" rx="14" class="box"/>
  <text x="1235" y="665" class="card-title">Android Target</text>
  <text x="1235" y="707" class="card-body">emulator, physical device,</text>
  <text x="1235" y="736" class="card-body">or TCP/IP connected target</text>

  <path d="M 340 330 L 420 330" class="line"/>
  <path d="M 700 330 L 780 330" class="line"/>
  <path d="M 1150 330 L 1230 330" class="line"/>
  <path d="M 1380 420 L 1380 600" class="line"/>
  <path d="M 960 480 L 930 600" class="line"/>
  <path d="M 790 430 C 690 515 575 570 510 610" class="line"/>

  <rect x="80" y="810" width="1440" height="46" rx="23" fill="#0e1714" stroke="#274039"/>
  <text x="110" y="840" class="mono">github.com/MrNewDelhi/adb-mcp</text>
  <text x="565" y="840" class="card-body">Evidence first. Explicit destructive tools. Typed MCP interface. Raw adb escape hatch.</text>
</svg>
